<?xml version="1.0" encoding="UTF-8" standalone="no"?>
<!-- Created with Inkscape (http://www.inkscape.org/) -->

<svg
   xmlns:dc="http://purl.org/dc/elements/1.1/"
   xmlns:cc="http://creativecommons.org/ns#"
   xmlns:rdf="http://www.w3.org/1999/02/22-rdf-syntax-ns#"
   xmlns:svg="http://www.w3.org/2000/svg"
   xmlns="http://www.w3.org/2000/svg"
   xmlns:sodipodi="http://sodipodi.sourceforge.net/DTD/sodipodi-0.dtd"
   xmlns:inkscape="http://www.inkscape.org/namespaces/inkscape"
   width="29.226135mm"
   height="11.302171mm"
   viewBox="0 0 29.226135 11.302171"
   version="1.1"
   id="svg8"
   inkscape:version="0.92.4 (5da689c313, 2019-01-14)"
   sodipodi:docname="dog-o-3.svg">
  <defs
     id="defs2">
    <inkscape:path-effect
       effect="simplify"
       id="path-effect839"
       is_visible="true"
       steps="5"
       threshold="0.0025"
       smooth_angles="10"
       helper_size="1"
       simplify_individual_paths="false"
       simplify_just_coalesce="false" />
  </defs>
  <sodipodi:namedview
     id="base"
     pagecolor="#ffffff"
     bordercolor="#666666"
     borderopacity="1.0"
     inkscape:pageopacity="0.0"
     inkscape:pageshadow="2"
     inkscape:zoom="11.2"
     inkscape:cx="53.432705"
     inkscape:cy="21.041738"
     inkscape:document-units="mm"
     inkscape:current-layer="layer1"
     showgrid="false"
     inkscape:window-width="1920"
     inkscape:window-height="1001"
     inkscape:window-x="-9"
     inkscape:window-y="-9"
     inkscape:window-maximized="1" />
  <metadata
     id="metadata5">
    <rdf:RDF>
      <cc:Work
         rdf:about="">
        <dc:format>image/svg+xml</dc:format>
        <dc:type
           rdf:resource="http://purl.org/dc/dcmitype/StillImage" />
        <dc:title></dc:title>
      </cc:Work>
    </rdf:RDF>
  </metadata>
  <g
     inkscape:label="Layer 1"
     inkscape:groupmode="layer"
     id="layer1"
     transform="translate(-55.819167,-96.330209)">
    <path
       style="fill:#d4d4d6;fill-opacity:1;stroke-width:0.26458335"
       d="m 57.926403,103.42261 c -0.712908,-1.44215 -1.447383,-2.87437 -2.107236,-4.342005 0.204389,-0.486515 0.795335,-0.523272 1.234354,-0.651363 1.746447,-0.509555 3.675823,-0.327474 5.305138,0.501608 1.102383,0.560951 2.217984,1.40099 2.568987,2.61822 0.309804,1.07436 0.02536,2.23885 -0.497071,3.18983 -0.553864,1.00819 -1.539619,1.66161 -2.503899,2.22926 -0.453424,0.26692 -0.929595,0.49852 -1.429654,0.66422 -0.508629,-0.0228 -0.567254,-0.64405 -0.842336,-0.96019 -0.619578,-1.05947 -1.17203,-2.15612 -1.728283,-3.24958 z m 3.914275,-0.32061 c 0.569729,-0.61576 0.335325,-1.80621 -0.519891,-2.05079 -0.792846,-0.22674 -1.615984,0.51678 -1.535808,1.36032 0.05207,0.54781 0.539807,0.96889 1.100553,1.00148 0.34173,0.0199 0.695069,-0.0846 0.955146,-0.31101 z m 8.95214,3.20871 c -0.382219,-0.30343 -0.772549,-0.76195 -0.660237,-1.28597 0.194596,-0.42424 0.923817,-0.37646 1.056146,0.0732 0.421566,0.59952 1.445699,0.91733 1.972139,0.33103 0.426629,-0.47514 0.46219,-1.197 0.283597,-1.78094 -0.260263,-0.371 -0.745124,-0.19395 -1.122043,-0.26517 -0.996639,-0.18833 -1.869806,-1.03567 -1.960106,-2.07323 -0.07776,-0.89344 0.67252,-1.591467 1.459678,-1.915664 0.683221,-0.28139 1.446957,-0.161088 2.125658,0.126659 0.508094,0.215415 0.951572,0.639055 1.043725,1.219475 0.152769,0.96221 0.0037,1.93485 -0.07743,2.89573 -0.07172,0.84951 -0.176481,1.77361 -0.795836,2.43049 -0.699332,0.7417 -1.862229,1.00191 -2.809849,0.56459 -0.18412,-0.085 -0.35792,-0.19248 -0.515442,-0.32023 z m 2.42823,-4.81328 c 0.119787,-0.56588 -0.702366,-0.88533 -1.097042,-0.47626 -0.389777,0.40399 0.09006,1.21025 0.641926,0.99722 0.223696,-0.0863 0.402254,-0.2861 0.455116,-0.52096 z m 6.396939,2.38509 c -0.943763,-0.6022 -1.742726,-1.53441 -1.920106,-2.68588 -0.177747,-1.15385 -0.02899,-2.452716 0.782469,-3.351824 0.616891,-0.683521 1.397241,-1.309542 2.3175,-1.473154 1.11857,-0.198869 2.219847,0.342771 3.040774,1.090813 0.68227,0.621695 1.138318,1.492644 1.191179,2.43539 0.05048,0.900315 0.0038,1.876605 -0.541755,2.640575 -0.526135,0.73673 -1.277736,1.31732 -2.115364,1.64397 -0.904991,0.35292 -1.93871,0.21066 -2.754697,-0.29989 z m 2.595611,-2.6326 c 0.684574,-0.62085 0.229589,-1.863015 -0.668348,-2.051855 -0.684451,-0.143943 -1.370764,0.430949 -1.405066,1.152085 -0.03023,0.63542 0.520627,1.21298 1.18218,1.21603 0.321351,0.001 0.645416,-0.10714 0.891234,-0.31626 z m -15.88487,1.75542 c -1.146057,-0.56816 -1.298417,-2.34209 -0.310959,-3.159915 0.912069,-0.755386 2.362981,-0.844848 3.31293,-0.09258 0.807462,0.639433 1.062388,1.995433 0.333812,2.758623 -0.833249,0.87283 -2.28906,1.14008 -3.335783,0.49387 z m 2.12982,-1.50791 c 0.119787,-0.56588 -0.702366,-0.88533 -1.097042,-0.47626 -0.389777,0.40399 0.09006,1.21025 0.641926,0.99722 0.223696,-0.0863 0.402254,-0.2861 0.455116,-0.52096 z m 6.928797,-0.72376 c -0.0289,-0.55492 0.669873,-0.52718 1.062579,-0.54717 0.340328,-0.0173 0.80935,0.13027 0.810271,0.54142 0.0012,0.51772 -0.631801,0.59255 -1.026645,0.53177 -0.343348,0.0188 -0.923714,-0.0436 -0.846205,-0.52602 z"
       id="path837"
       inkscape:connector-curvature="0"
       sodipodi:nodetypes="sscscssccscsccsscssccsccccccccsccscsccssscccccccccccsssss"
       inkscape:path-effect="#path-effect839"
       inkscape:original-d="m 57.926403,103.42261 c -1.165024,-2.32662 -2.118225,-4.297229 -2.118225,-4.379119 0,-0.37705 1.983987,-0.9154 3.364939,-0.91307 2.51841,0.004 5.180488,1.60108 5.771026,3.461699 0.332766,1.04845 -0.13726,2.86403 -0.994096,3.83991 -0.75033,0.85458 -2.985697,2.2208 -3.633598,2.2208 -0.149502,0 -1.225023,-1.9036 -2.390046,-4.23022 z m 3.914275,-0.32061 c 0.40812,-0.40812 0.40812,-1.33813 0,-1.74625 -0.742155,-0.74216 -2.06375,-0.18302 -2.06375,0.87313 0,0.30559 0.142875,0.6985 0.3175,0.87312 0.174625,0.17463 0.567531,0.3175 0.873125,0.3175 0.305594,0 0.6985,-0.14287 0.873125,-0.3175 z m 8.95214,3.20871 c -0.839949,-0.6607 -0.937157,-1.56829 -0.167973,-1.56829 0.291041,0 0.529166,0.12161 0.529166,0.27025 0,0.14864 0.282596,0.39902 0.627991,0.55639 0.981702,0.44729 1.753259,-0.0952 1.753259,-1.23283 0,-0.80622 -0.08132,-0.91673 -0.674597,-0.91673 -2.384718,0 -3.44549,-2.80045 -1.451376,-3.831649 0.974688,-0.50403 1.682183,-0.50794 2.636217,-0.0146 1.01999,0.527449 1.125966,0.940299 0.913513,3.558669 -0.161626,1.99195 -0.271351,2.35087 -0.915633,2.99515 -0.903687,0.90369 -2.239248,0.97914 -3.250567,0.18363 z m 2.42823,-4.81328 c 0.105301,-0.54678 -0.658498,-0.91522 -1.06162,-0.5121 -0.403122,0.40313 -0.03468,1.16692 0.512099,1.06162 0.253431,-0.0488 0.500715,-0.29609 0.549521,-0.54952 z m 6.396939,2.38509 c -1.462947,-0.99567 -1.981684,-1.91335 -1.981684,-3.50573 0,-1.592369 0.518737,-2.510049 1.981684,-3.505729 1.56814,-1.06727 3.477461,-0.54134 4.873151,1.34232 0.39965,0.53937 0.5535,1.1407 0.5535,2.163409 0,1.02271 -0.15385,1.62404 -0.5535,2.16341 -0.81057,1.09396 -2.152881,1.84904 -3.121139,1.84904 -0.466283,0 -1.270929,-0.1793 -1.752012,-0.50672 z m 2.595611,-2.6326 c 0.74215,-0.74216 0.18302,-2.063749 -0.873128,-2.063749 -0.709205,0 -1.190625,0.48142 -1.190625,1.190619 0,0.70921 0.48142,1.19063 1.190625,1.19063 0.305593,0 0.6985,-0.14288 0.873128,-0.3175 z m -15.88487,1.75542 c -1.332107,-0.72279 -1.300899,-2.71711 0.05348,-3.417489 2.035184,-1.05243 4.121098,0.31944 3.606031,2.371629 -0.181272,0.72225 -1.375235,1.4276 -2.326815,1.41104 -0.334648,-0.006 -0.93436,-0.10179 -1.332693,-0.36518 z m 2.12982,-1.50791 c 0.105301,-0.54678 -0.658498,-0.91522 -1.06162,-0.5121 -0.403122,0.40313 -0.03468,1.16692 0.512099,1.06162 0.253431,-0.0488 0.500715,-0.29609 0.549521,-0.54952 z m 6.928797,-0.72376 c 0,-0.42838 0.176389,-0.52917 0.926041,-0.52917 0.749653,0 0.926042,0.10079 0.926042,0.52917 0,0.42837 -0.176389,0.52916 -0.926042,0.52916 -0.749652,0 -0.926041,-0.10079 -0.926041,-0.52916 z" />
  </g>
</svg>
